<svg width="39" height="39" viewBox="0 0 39 39" fill="none" xmlns="http://www.w3.org/2000/svg">
<path fill-rule="evenodd" clip-rule="evenodd" d="M26.7213 9.84514V7.13574C26.7213 3.82203 24.035 1.13574 20.7213 1.13574H18.2803C14.9666 1.13574 12.2803 3.82204 12.2803 7.13575V20.4075C12.2803 21.5202 12.5832 22.5622 13.111 23.4555L26.7213 9.84514ZM15.2323 25.5768C16.1256 26.1046 17.1675 26.4075 18.2803 26.4075H20.7213C24.035 26.4075 26.7213 23.7213 26.7213 20.4075V14.0878L15.2323 25.5768Z" fill="#4F4F4F"/>
<path fill-rule="evenodd" clip-rule="evenodd" d="M11.8226 24.7433C10.9408 23.5269 10.341 22.0928 10.1191 20.5368C10.0136 19.7966 9.41761 19.187 8.6699 19.187C7.92219 19.187 7.30816 19.7955 7.39018 20.5387C7.64396 22.8382 8.5376 24.9448 9.88914 26.6768L11.8226 24.7433ZM12.0104 28.7982C13.7419 30.1495 15.848 31.0431 18.1468 31.2973V35.8845H14.0853C13.3376 35.8845 12.7314 36.4906 12.7314 37.2383C12.7314 37.986 13.3376 38.5921 14.0853 38.5921H24.9161C25.6638 38.5921 26.2699 37.986 26.2699 37.2383C26.2699 36.4906 25.6638 35.8845 24.9161 35.8845H20.8545V31.2973C26.503 30.6729 30.9878 26.1874 31.6112 20.5387C31.6932 19.7955 31.0792 19.187 30.3314 19.187C29.5837 19.187 28.9878 19.7966 28.8822 20.5368C28.2271 25.131 24.2772 28.6632 19.5022 28.6639H19.5007C17.4249 28.6639 15.505 27.9966 13.9439 26.8647L12.0104 28.7982Z" fill="#4F4F4F"/>
<path d="M37.5518 1.13574L1.44922 37.2383" stroke="#CC3B33" stroke-width="1.5" stroke-linecap="round"/>
</svg>
