<svg width="96" height="30" viewBox="0 0 96 30" fill="none" xmlns="http://www.w3.org/2000/svg">
<path fill-rule="evenodd" clip-rule="evenodd" d="M2.23633 0.731445C1.13176 0.731445 0.236328 1.62687 0.236328 2.73144V27.4845C0.236328 28.589 1.13176 29.4845 2.23633 29.4845H37.7717C38.8763 29.4845 39.7717 28.589 39.7717 27.4845V2.73145C39.7717 1.62688 38.8763 0.731445 37.7717 0.731445H2.23633ZM20.5342 7.3894C20.2413 7.09651 19.7664 7.09651 19.4736 7.3894L14.0824 12.7806C13.7895 13.0735 13.7895 13.5484 14.0824 13.8413C14.3753 14.1341 14.8501 14.1341 15.143 13.8413L19.2539 9.73039V20.4992C19.2539 20.9134 19.5897 21.2492 20.0039 21.2492C20.4181 21.2492 20.7539 20.9134 20.7539 20.4992V9.73039L24.8647 13.8413C25.1576 14.1341 25.6325 14.1341 25.9254 13.8413C26.2183 13.5484 26.2183 13.0735 25.9254 12.7806L20.5342 7.3894Z" fill="#63C454"/>
<path d="M74.7611 18.3495C75.2275 18.8159 75.9835 18.8163 76.4503 18.3504L80.7511 14.059C80.9463 13.8643 81.2623 13.8643 81.4574 14.059L85.7582 18.3504C86.2251 18.8163 86.9811 18.8159 87.4474 18.3495V18.3495C87.9142 17.8828 87.9142 17.1261 87.4474 16.6593L81.4578 10.6697C81.2626 10.4745 80.946 10.4745 80.7507 10.6697L74.7611 16.6593C74.2944 17.1261 74.2944 17.8828 74.7611 18.3495V18.3495Z" fill="#63C454"/>
</svg>
