<svg width="41" height="38" viewBox="0 0 41 38" fill="none" xmlns="http://www.w3.org/2000/svg">
<path d="M31.2295 14.0655C31.2295 13.7143 31.4138 13.3888 31.715 13.2081L38.656 9.04346C39.3225 8.64355 40.1705 9.12366 40.1705 9.90096V29.6151C40.1705 30.3924 39.3225 30.8725 38.656 30.4726L31.715 26.308C31.4138 26.1273 31.2295 25.8018 31.2295 25.4505V14.0655Z" fill="#4F4F4F"/>
<path d="M0.830078 10.1348C0.830078 9.03019 1.72551 8.13477 2.83008 8.13477H25.4412C27.6504 8.13477 29.4412 9.92563 29.4412 12.1348V29.3813C29.4412 30.4859 28.5458 31.3813 27.4412 31.3813H4.83008C2.62094 31.3813 0.830078 29.5905 0.830078 27.3813V10.1348Z" fill="#4F4F4F"/>
<path d="M38.3821 0.981934L2.61816 36.7459" stroke="#CC3B33" stroke-width="1.5" stroke-linecap="round"/>
</svg>
