<svg width="33" height="35" viewBox="0 0 33 35" fill="none" xmlns="http://www.w3.org/2000/svg">
<mask id="mask0_991_2979" style="mask-type:alpha" maskUnits="userSpaceOnUse" x="1" y="1" width="31" height="33">
<path d="M16.8589 33.8975C18.7443 33.8975 31.9483 26.3523 31.9483 9.37551C30.9757 9.37563 22.7001 7.48927 16.8589 1.83032C11.0176 7.48922 2.74089 9.37563 1.76758 9.37551C1.76758 26.3523 14.9735 33.8975 16.8589 33.8975Z" fill="#C4C4C4"/>
</mask>
<g mask="url(#mask0_991_2979)">
<rect x="-0.119141" y="-0.0561523" width="16.9767" height="17.9198" fill="#4F4F4F"/>
<rect x="16.8574" y="17.8635" width="16.9767" height="17.9198" fill="#4F4F4F"/>
</g>
<path fill-rule="evenodd" clip-rule="evenodd" d="M16.2024 1.15296C16.5682 0.798622 17.1492 0.798623 17.5149 1.15296C20.3197 3.87021 23.7307 5.69949 26.5822 6.85052C28.0041 7.42447 29.2747 7.82488 30.2424 8.08059C30.7266 8.20851 31.1303 8.29901 31.4355 8.35679C31.5883 8.38572 31.7119 8.40559 31.8056 8.41791C31.9021 8.4306 31.9445 8.43226 31.9478 8.43239L31.948 8.4324C32.1982 8.43237 32.4381 8.53172 32.615 8.7086C32.7919 8.88548 32.8913 9.12539 32.8913 9.37555C32.8913 18.129 29.4813 24.4745 25.8176 28.6268C23.9894 30.6989 22.0957 32.2282 20.5242 33.2452C19.739 33.7533 19.0247 34.1396 18.4298 34.4027C17.8802 34.6458 17.3091 34.8407 16.8587 34.8407C16.4082 34.8407 15.8372 34.6458 15.2875 34.4027C14.6925 34.1396 13.9782 33.7533 13.1929 33.2452C11.6212 32.2282 9.72727 30.6989 7.89882 28.6269C4.23469 24.4746 0.824219 18.129 0.824219 9.37555C0.824219 9.12539 0.923601 8.88548 1.1005 8.7086C1.2774 8.53172 1.51732 8.43237 1.76748 8.4324C1.76746 8.4324 1.76752 8.43239 1.76766 8.43239C1.7708 8.43227 1.81322 8.43064 1.91009 8.4179C2.0038 8.40558 2.12744 8.38571 2.2803 8.35678C2.5856 8.29899 2.98947 8.20849 3.47368 8.08057C4.44168 7.82485 5.71248 7.42444 7.13454 6.85048C9.98638 5.69945 13.3976 3.87017 16.2024 1.15296ZM2.72112 10.1928C2.92428 17.9922 6.01705 23.6435 9.31318 27.3788C11.0219 29.3151 12.783 30.7332 14.2176 31.6615C14.9355 32.126 15.5622 32.4617 16.0503 32.6776C16.2948 32.7857 16.4946 32.8593 16.6467 32.9044C16.777 32.9431 16.8427 32.9518 16.8576 32.9538C16.858 32.9539 16.8583 32.9539 16.8587 32.954C16.859 32.9539 16.8594 32.9539 16.8598 32.9538C16.8746 32.9518 16.9403 32.9431 17.0706 32.9044C17.2227 32.8593 17.4225 32.7857 17.6669 32.6776C18.1549 32.4618 18.7816 32.126 19.4994 31.6615C20.9339 30.7332 22.6947 29.3152 24.4032 27.3788C27.6989 23.6436 30.7913 17.9922 30.9944 10.1927C30.6537 10.1257 30.2374 10.0303 29.7606 9.9043C28.7206 9.62952 27.3749 9.20467 25.8761 8.59968C23.0988 7.47859 19.754 5.72197 16.8587 3.11995C13.9632 5.72196 10.6182 7.47859 7.84054 8.59968C6.34159 9.20467 4.99564 9.62952 3.95547 9.90431C3.47846 10.0303 3.06191 10.1258 2.72112 10.1928Z" fill="#4F4F4F"/>
</svg>
