<svg width="96" height="32" viewBox="0 0 96 32" fill="none" xmlns="http://www.w3.org/2000/svg">
<circle cx="12.733" cy="7.78283" r="7.18322" fill="#4F4F4F"/>
<circle cx="29.7931" cy="10.4765" r="6.28532" fill="#4F4F4F"/>
<path d="M21.4355 31.1283C23.3694 31.1283 25.3034 28.7114 25.3034 26.2934C25.3034 20.4916 18.497 18.5576 12.7327 18.5576C6.96853 18.5576 0.162109 20.4916 0.162109 26.2934C0.162109 28.7114 2.09605 31.1283 4.03 31.1283H21.4355Z" fill="#4F4F4F"/>
<path fill-rule="evenodd" clip-rule="evenodd" d="M22.2572 30.988C23.8817 30.4391 25.3034 28.3667 25.3034 26.2935C25.3034 24.3613 24.5485 22.8581 23.3287 21.7125C21.3343 22.7414 19.916 24.4232 19.916 26.9842C19.916 28.7369 21.0027 30.4889 22.2572 30.988ZM26.332 31.1283H36.6308C38.1503 31.1283 39.6699 29.0567 39.6699 26.9842C39.6699 22.0112 34.322 20.3535 29.7929 20.3535C28.5782 20.3535 27.3045 20.4728 26.0909 20.7433C27.2509 22.1894 27.9971 24.0238 27.9971 26.2935C27.9971 28.1069 27.3187 29.8241 26.332 31.1283Z" fill="#4F4F4F"/>
<path d="M77.4883 18.1532C78.0057 18.6706 78.8444 18.671 79.3624 18.1542L84.1723 13.3547C84.3675 13.16 84.6834 13.16 84.8786 13.3547L89.6885 18.1542C90.2065 18.671 91.0452 18.6706 91.5626 18.1532V18.1532C92.0804 17.6354 92.0804 16.7959 91.5626 16.2781L84.879 9.59452C84.6837 9.39926 84.3672 9.39926 84.1719 9.59452L77.4883 16.2781C76.9705 16.7959 76.9705 17.6354 77.4883 18.1532V18.1532Z" fill="#4F4F4F"/>
</svg>
