<svg width="36" height="37" viewBox="0 0 36 37" fill="none" xmlns="http://www.w3.org/2000/svg">
<path fill-rule="evenodd" clip-rule="evenodd" d="M31.0196 0.0214844C31.5209 0.0214844 31.9272 0.427843 31.9272 0.929112V3.65199H34.6501C35.1514 3.65199 35.5577 4.05835 35.5577 4.55962C35.5577 5.06089 35.1514 5.46725 34.6501 5.46725H31.9272V8.19013C31.9272 8.6914 31.5209 9.09776 31.0196 9.09776C30.5183 9.09776 30.112 8.6914 30.112 8.19013V5.46725H27.3891C26.8878 5.46725 26.4814 5.06089 26.4814 4.55962C26.4814 4.05835 26.8878 3.65199 27.3891 3.65199H30.112V0.929112C30.112 0.427843 30.5183 0.0214844 31.0196 0.0214844Z" fill="#4F4F4F"/>
<path fill-rule="evenodd" clip-rule="evenodd" d="M16.4974 3.4668C19.7412 3.4668 22.7642 4.41215 25.3059 6.04238C25.515 6.59193 26.0379 6.98678 26.6557 7.00806C27.632 7.78414 28.5174 8.66957 29.2935 9.64587C29.3148 10.2636 29.7096 10.7865 30.2592 10.9957C31.8894 13.5374 32.8347 16.5603 32.8347 19.8041C32.8347 28.8269 25.5203 36.1414 16.4974 36.1414C7.47461 36.1414 0.160156 28.8269 0.160156 19.8041C0.160156 10.7813 7.47461 3.4668 16.4974 3.4668ZM12.4132 17.7619C13.5411 17.7619 14.4554 16.8476 14.4554 15.7197C14.4554 14.5919 13.5411 13.6776 12.4132 13.6776C11.2853 13.6776 10.371 14.5919 10.371 15.7197C10.371 16.8476 11.2853 17.7619 12.4132 17.7619ZM22.624 15.7197C22.624 16.8476 21.7097 17.7619 20.5818 17.7619C19.454 17.7619 18.5396 16.8476 18.5396 15.7197C18.5396 14.5919 19.454 13.6776 20.5818 13.6776C21.7097 13.6776 22.624 14.5919 22.624 15.7197ZM10.8183 21.6226C10.6948 21.3756 10.3944 21.2755 10.1474 21.399C9.90044 21.5225 9.80033 21.8228 9.92382 22.0698C10.4529 23.128 11.1797 24.2201 12.2407 25.0483C13.3107 25.8835 14.6956 26.4305 16.4975 26.4305C18.2994 26.4305 19.6843 25.8835 20.7542 25.0483C21.8151 24.2201 22.5419 23.128 23.0712 22.0699C23.1947 21.8229 23.0947 21.5225 22.8477 21.399C22.6007 21.2755 22.3004 21.3755 22.1768 21.6225C21.6846 22.6065 21.0399 23.5566 20.1388 24.26C19.2468 24.9564 18.0792 25.4305 16.4975 25.4305C14.9159 25.4305 13.7481 24.9564 12.856 24.26C11.9549 23.5566 11.3102 22.6065 10.8183 21.6226Z" fill="#4F4F4F"/>
</svg>
